{
  "accessors": [
    {
      "bufferView": 2,
      "componentType": 5126,
      "count": 4621,
      "max": [
        13.97142505645752,
        13.093074798583984,
        0.7836721539497375
      ],
      "min": [
        -10.584955215454102,
        0.14828936755657196,
        -8.584955215454102
      ],
      "type": "VEC3"
    },
    {
      "bufferView": 2,
      "byteOffset": 55452,
      "componentType": 5126,
      "count": 4621,
      "max": [
        1.0,
        1.0,
        1.0
      ],
      "min": [
        -1.0,
        -1.0,
        -1.0
      ],
      "type": "VEC3"
    },
    {
      "bufferView": 1,
      "componentType": 5126,
      "count": 4621,
      "max": [
        0.9925544261932373,
        1.0
      ],
      "min": [
        -7.450580596923828e-09,
        0.0
      ],
      "type": "VEC2"
    },
    {
      "bufferView": 0,
      "componentType": 5125,
      "count": 25920,
      "type": "SCALAR"
    },
    {
      "bufferView": 2,
      "byteOffset": 110904,
      "componentType": 5126,
      "count": 89,
      "max": [
        0.46875,
        0.4392361640930176,
        0.46875011920928955
      ],
      "min": [
        -0.46875,
        -0.5,
        -0.4687499403953552
      ],
      "type": "VEC3"
    },
    {
      "bufferView": 2,
      "byteOffset": 111972,
      "componentType": 5126,
      "count": 89,
      "max": [
        1.0,
        1.0,
        1.0
      ],
      "min": [
        -1.0,
        -4.214684778958144e-08,
        -1.0
      ],
      "type": "VEC3"
    },
    {
      "bufferView": 1,
      "byteOffset": 36968,
      "componentType": 5126,
      "count": 89,
      "max": [
        0.31690752506256104,
        0.9715114831924438
      ],
      "min": [
        0.04312613606452942,
        0.7167327404022217
      ],
      "type": "VEC2"
    },
    {
      "bufferView": 0,
      "byteOffset": 103680,
      "componentType": 5125,
      "count": 480,
      "type": "SCALAR"
    },
    {
      "bufferView": 2,
      "byteOffset": 113040,
      "componentType": 5126,
      "count": 60,
      "max": [
        -0.6286454200744629,
        8.197550773620605,
        -0.04984501004219055
      ],
      "min": [
        -3.7115559577941895,
        6.9583892822265625,
        -0.9262580275535583
      ],
      "type": "VEC3"
    },
    {
      "bufferView": 2,
      "byteOffset": 113760,
      "componentType": 5126,
      "count": 60,
      "max": [
        0.999405562877655,
        0.9361222982406616,
        0.9365589022636414
      ],
      "min": [
        -0.999405562877655,
        -0.5793638825416565,
        -0.9365589022636414
      ],
      "type": "VEC3"
    },
    {
      "bufferView": 1,
      "byteOffset": 37680,
      "componentType": 5126,
      "count": 60,
      "max": [
        0.875,
        0.75
      ],
      "min": [
        0.125,
        0.0
      ],
      "type": "VEC2"
    },
    {
      "bufferView": 0,
      "byteOffset": 105600,
      "componentType": 5125,
      "count": 90,
      "type": "SCALAR"
    },
    {
      "bufferView": 2,
      "byteOffset": 114480,
      "componentType": 5126,
      "count": 60,
      "max": [
        3.7808332443237305,
        8.19340705871582,
        -0.050429195165634155
      ],
      "min": [
        0.6860037446022034,
        6.969616889953613,
        -0.924708366394043
      ],
      "type": "VEC3"
    },
    {
      "bufferView": 2,
      "byteOffset": 115200,
      "componentType": 5126,
      "count": 60,
      "max": [
        0.999405562877655,
        0.9361222982406616,
        0.9365589618682861
      ],
      "min": [
        -0.999405562877655,
        -0.5484106540679932,
        -0.9365590214729309
      ],
      "type": "VEC3"
    },
    {
      "bufferView": 1,
      "byteOffset": 38160,
      "componentType": 5126,
      "count": 60,
      "max": [
        0.875,
        0.75
      ],
      "min": [
        0.125,
        0.0
      ],
      "type": "VEC2"
    },
    {
      "bufferView": 0,
      "byteOffset": 105960,
      "componentType": 5125,
      "count": 90,
      "type": "SCALAR"
    },
    {
      "bufferView": 2,
      "byteOffset": 115920,
      "componentType": 5126,
      "count": 89,
      "max": [
        0.46875,
        0.4392361640930176,
        0.46875
      ],
      "min": [
        -0.4687499403953552,
        -0.5,
        -0.4687500596046448
      ],
      "type": "VEC3"
    },
    {
      "bufferView": 2,
      "byteOffset": 116988,
      "componentType": 5126,
      "count": 89,
      "max": [
        1.0,
        1.0,
        1.0
      ],
      "min": [
        -1.0,
        -1.7881393432617188e-07,
        -1.0
      ],
      "type": "VEC3"
    },
    {
      "bufferView": 1,
      "byteOffset": 38640,
      "componentType": 5126,
      "count": 89,
      "max": [
        0.9094194769859314,
        0.949485719203949
      ],
      "min": [
        0.7037116289138794,
        0.7034571170806885
      ],
      "type": "VEC2"
    },
    {
      "bufferView": 0,
      "byteOffset": 106320,
      "componentType": 5125,
      "count": 480,
      "type": "SCALAR"
    },
    {
      "bufferView": 2,
      "byteOffset": 118056,
      "componentType": 5126,
      "count": 89,
      "max": [
        0.46875,
        0.4392361640930176,
        0.46875
      ],
      "min": [
        -0.4687499403953552,
        -0.5,
        -0.4687500596046448
      ],
      "type": "VEC3"
    },
    {
      "bufferView": 2,
      "byteOffset": 119124,
      "componentType": 5126,
      "count": 89,
      "max": [
        1.0,
        1.0,
        1.0
      ],
      "min": [
        -1.0,
        -1.7881389169360773e-07,
        -1.0
      ],
      "type": "VEC3"
    },
    {
      "bufferView": 1,
      "byteOffset": 39352,
      "componentType": 5126,
      "count": 89,
      "max": [
        0.9094194173812866,
        0.9494853019714355
      ],
      "min": [
        0.7037114500999451,
        0.703456699848175
      ],
      "type": "VEC2"
    },
    {
      "bufferView": 0,
      "byteOffset": 108240,
      "componentType": 5125,
      "count": 480,
      "type": "SCALAR"
    },
    {
      "bufferView": 2,
      "byteOffset": 120192,
      "componentType": 5126,
      "count": 1694,
      "max": [
        6.000000476837158,
        10.297752380371094,
        6.991706848144531
      ],
      "min": [
        -6.000000476837158,
        0.0,
        -9.401288032531738
      ],
      "type": "VEC3"
    },
    {
      "bufferView": 2,
      "byteOffset": 140520,
      "componentType": 5126,
      "count": 1694,
      "max": [
        1.0,
        0.9999989867210388,
        1.0
      ],
      "min": [
        -1.0,
        -1.0,
        -1.0
      ],
      "type": "VEC3"
    },
    {
      "bufferView": 1,
      "byteOffset": 40064,
      "componentType": 5126,
      "count": 1694,
      "max": [
        1.0000991821289063,
        0.7817926406860352
      ],
      "min": [
        -9.918329305946827e-05,
        0.0
      ],
      "type": "VEC2"
    },
    {
      "bufferView": 0,
      "byteOffset": 110160,
      "componentType": 5125,
      "count": 9138,
      "type": "SCALAR"
    },
    {
      "bufferView": 2,
      "byteOffset": 160848,
      "componentType": 5126,
      "count": 97,
      "max": [
        19.828895568847656,
        0.0,
        19.828895568847656
      ],
      "min": [
        -19.828895568847656,
        0.0,
        -19.82889747619629
      ],
      "type": "VEC3"
    },
    {
      "bufferView": 2,
      "byteOffset": 162012,
      "componentType": 5126,
      "count": 97,
      "max": [
        0.0,
        1.0,
        0.0
      ],
      "min": [
        0.0,
        1.0,
        0.0
      ],
      "type": "VEC3"
    },
    {
      "bufferView": 1,
      "byteOffset": 53616,
      "componentType": 5126,
      "count": 97,
      "max": [
        1.0,
        1.0
      ],
      "min": [
        0.0,
        0.0
      ],
      "type": "VEC2"
    },
    {
      "bufferView": 0,
      "byteOffset": 146712,
      "componentType": 5125,
      "count": 432,
      "type": "SCALAR"
    }
  ],
  "asset": {
    "extras": {
      "author": "ZZBIGGY (https://sketchfab.com/ZZBIGGY)",
      "license": "CC-BY-4.0 (http://creativecommons.org/licenses/by/4.0/)",
      "source": "https://sketchfab.com/3d-models/powerpuff-girls-phone-17023c5ae5184729a6b6874fb7bb3fcd",
      "title": "PowerPuff Girls Phone"
    },
    "generator": "Sketchfab-15.7.0",
    "version": "2.0"
  },
  "bufferViews": [
    {
      "buffer": 0,
      "byteLength": 148440,
      "name": "floatBufferViews",
      "target": 34963
    },
    {
      "buffer": 0,
      "byteLength": 54392,
      "byteOffset": 148440,
      "byteStride": 8,
      "name": "floatBufferViews",
      "target": 34962
    },
    {
      "buffer": 0,
      "byteLength": 163176,
      "byteOffset": 202832,
      "byteStride": 12,
      "name": "floatBufferViews",
      "target": 34962
    }
  ],
  "buffers": [
    {
      "byteLength": 366008,
      "uri": "scene.bin"
    }
  ],
  "extensionsUsed": [
    "KHR_materials_emissive_strength"
  ],
  "images": [
    {
      "uri": "textures/phone_baseColor.jpeg"
    }
  ],
  "materials": [
    {
      "doubleSided": true,
      "emissiveFactor": [
        1.0,
        0.0,
        0.0
      ],
      "name": "material",
      "pbrMetallicRoughness": {
        "baseColorFactor": [
          0.702,
          0.0,
          0.0,
          1.0
        ],
        "metallicFactor": 0.0,
        "roughnessFactor": 0.09942582682156753
      }
    },
    {
      "doubleSided": true,
      "emissiveFactor": [
        1.0,
        0.0,
        0.0
      ],
      "extensions": {
        "KHR_materials_emissive_strength": {
          "emissiveStrength": 10.0
        }
      },
      "name": "nose",
      "pbrMetallicRoughness": {
        "baseColorFactor": [
          1.0,
          0.0,
          0.0,
          1.0
        ],
        "metallicFactor": 0.0,
        "roughnessFactor": 0.6
      }
    },
    {
      "doubleSided": true,
      "name": "black",
      "pbrMetallicRoughness": {
        "baseColorFactor": [
          0.0,
          0.0,
          0.0,
          1.0
        ],
        "metallicFactor": 0.0,
        "roughnessFactor": 0.6
      }
    },
    {
      "doubleSided": true,
      "emissiveFactor": [
        0.3504772585973595,
        0.3504772585973595,
        0.3504772585973595
      ],
      "emissiveTexture": {
        "index": 0
      },
      "name": "phone",
      "pbrMetallicRoughness": {
        "baseColorTexture": {
          "index": 0
        },
        "metallicFactor": 0.0,
        "roughnessFactor": 0.0
      }
    },
    {
      "doubleSided": true,
      "name": "ground",
      "pbrMetallicRoughness": {
        "baseColorFactor": [
          1.0,
          0.615,
          0.80519,
          1.0
        ],
        "metallicFactor": 0.0
      }
    }
  ],
  "meshes": [
    {
      "name": "phone_msh_red_0",
      "primitives": [
        {
          "attributes": {
            "NORMAL": 1,
            "POSITION": 0,
            "TEXCOORD_0": 2
          },
          "indices": 3,
          "material": 0,
          "mode": 4
        }
      ]
    },
    {
      "name": "nose_msh_nose_0",
      "primitives": [
        {
          "attributes": {
            "NORMAL": 5,
            "POSITION": 4,
            "TEXCOORD_0": 6
          },
          "indices": 7,
          "material": 1,
          "mode": 4
        }
      ]
    },
    {
      "name": "eyelashes_msh1_black_0",
      "primitives": [
        {
          "attributes": {
            "NORMAL": 9,
            "POSITION": 8,
            "TEXCOORD_0": 10
          },
          "indices": 11,
          "material": 2,
          "mode": 4
        }
      ]
    },
    {
      "name": "eyelashes_msh2_black_0",
      "primitives": [
        {
          "attributes": {
            "NORMAL": 13,
            "POSITION": 12,
            "TEXCOORD_0": 14
          },
          "indices": 15,
          "material": 2,
          "mode": 4
        }
      ]
    },
    {
      "name": "eye_msh1_phone_0",
      "primitives": [
        {
          "attributes": {
            "NORMAL": 17,
            "POSITION": 16,
            "TEXCOORD_0": 18
          },
          "indices": 19,
          "material": 3,
          "mode": 4
        }
      ]
    },
    {
      "name": "eye_msh2_phone_0",
      "primitives": [
        {
          "attributes": {
            "NORMAL": 21,
            "POSITION": 20,
            "TEXCOORD_0": 22
          },
          "indices": 23,
          "material": 3,
          "mode": 4
        }
      ]
    },
    {
      "name": "body_msh_phone_0",
      "primitives": [
        {
          "attributes": {
            "NORMAL": 25,
            "POSITION": 24,
            "TEXCOORD_0": 26
          },
          "indices": 27,
          "material": 3,
          "mode": 4
        }
      ]
    },
    {
      "name": "ground_msh_ground_0",
      "primitives": [
        {
          "attributes": {
            "NORMAL": 29,
            "POSITION": 28,
            "TEXCOORD_0": 30
          },
          "indices": 31,
          "material": 4,
          "mode": 4
        }
      ]
    }
  ],
  "nodes": [
    {
      "children": [
        1
      ],
      "matrix": [
        1.0,
        0.0,
        0.0,
        0.0,
        0.0,
        2.220446049250313e-16,
        -1.0,
        0.0,
        0.0,
        1.0,
        2.220446049250313e-16,
        0.0,
        0.0,
        0.0,
        0.0,
        1.0
      ],
      "name": "Sketchfab_model"
    },
    {
      "children": [
        2
      ],
      "matrix": [
        0.009999999776482582,
        0.0,
        0.0,
        0.0,
        0.0,
        0.0,
        0.009999999776482582,
        0.0,
        0.0,
        -0.009999999776482582,
        0.0,
        0.0,
        0.0,
        0.0,
        0.0,
        1.0
      ],
      "name": "120e97d3a3d740a5ba9d5538ce4f73d0.fbx"
    },
    {
      "children": [
        3,
        19
      ],
      "name": "RootNode"
    },
    {
      "children": [
        4,
        6,
        8,
        17
      ],
      "name": "PPG_PHONE"
    },
    {
      "children": [
        5
      ],
      "name": "phone_msh"
    },
    {
      "mesh": 0,
      "name": "phone_msh_red_0"
    },
    {
      "children": [
        7
      ],
      "matrix": [
        2.7659671306610107,
        0.0,
        0.0,
        0.0,
        0.0,
        2.3272306578647184,
        0.9782955925310562,
        0.0,
        0.0,
        -1.0795445835096094,
        2.5680880814104317,
        0.0,
        0.0,
        5.8854451179504395,
        4.143707275390625,
        1.0
      ],
      "name": "nose_msh"
    },
    {
      "mesh": 1,
      "name": "nose_msh_nose_0"
    },
    {
      "children": [
        9,
        11,
        13,
        15
      ],
      "name": "EYES"
    },
    {
      "children": [
        10
      ],
      "name": "eyelashes_msh1"
    },
    {
      "mesh": 2,
      "name": "eyelashes_msh1_black_0"
    },
    {
      "children": [
        12
      ],
      "name": "eyelashes_msh2"
    },
    {
      "mesh": 3,
      "name": "eyelashes_msh2_black_0"
    },
    {
      "children": [
        14
      ],
      "matrix": [
        3.46639347076416,
        0.0,
        0.0,
        0.0,
        0.0,
        1.0589782706491988,
        0.6092895590309585,
        0.0,
        0.0,
        -2.4783563971254203,
        4.307517718922379,
        0.0,
        -2.200000047683716,
        6.279098987579346,
        1.1547242403030396,
        1.0
      ],
      "name": "eye_msh1"
    },
    {
      "mesh": 4,
      "name": "eye_msh1_phone_0"
    },
    {
      "children": [
        16
      ],
      "matrix": [
        3.46639347076416,
        0.0,
        0.0,
        0.0,
        0.0,
        1.0589782706491988,
        0.6092895590309585,
        0.0,
        0.0,
        -2.4783563971254203,
        4.307517718922379,
        0.0,
        2.2001640796661377,
        6.279098987579346,
        1.1547242403030396,
        1.0
      ],
      "name": "eye_msh2"
    },
    {
      "mesh": 5,
      "name": "eye_msh2_phone_0"
    },
    {
      "children": [
        18
      ],
      "name": "body_msh"
    },
    {
      "mesh": 6,
      "name": "body_msh_phone_0"
    },
    {
      "children": [
        20
      ],
      "matrix": [
        1.0,
        0.0,
        0.0,
        0.0,
        0.0,
        1.0,
        0.0,
        0.0,
        0.0,
        0.0,
        1.0,
        0.0,
        0.0,
        0.0,
        -4.0,
        1.0
      ],
      "name": "ground_msh"
    },
    {
      "mesh": 7,
      "name": "ground_msh_ground_0"
    }
  ],
  "samplers": [
    {
      "magFilter": 9729,
      "minFilter": 9987,
      "wrapS": 10497,
      "wrapT": 10497
    }
  ],
  "scene": 0,
  "scenes": [
    {
      "name": "Sketchfab_Scene",
      "nodes": [
        0
      ]
    }
  ],
  "textures": [
    {
      "sampler": 0,
      "source": 0
    }
  ]
}
